# xmcd CD database file
#
# Track frame offsets:
#	182
#	27265
#	52872
#	82507
#	108787
#	127965
#	146105
#	171090
#	207717
#	243742
#
# Disc length: 3756 seconds
#
# Revision: 0
# Processed by: cddbd v1.5.1PL2 Copyright (c) Steve Scherf et al.
# Submitted via: CDex 1.51
#
DISCID=800eaa0a
DTITLE=Kenny Dorham - A Jazz Hour With The Kenny Dorham Quintet - Horn Salute
DYEAR=1997
DGENRE=Jazz
TTITLE0=Why Do I Love You?
TTITLE1=Nobody Else But Me
TTITLE2=Can't Help Lovin' Dat Man
TTITLE3=Make Believe
TTITLE4=Ol' Man River
TTITLE5=Bill
TTITLE6=A Waltz
TTITLE7=Monk's Mood
TTITLE8=In Your Own Sweet Way
TTITLE9=Horn Salute
EXTD=YEAR: 1997
EXTT0=
EXTT1=
EXTT2=
EXTT3=
EXTT4=
EXTT5=
EXTT6=
EXTT7=
EXTT8=
EXTT9=
PLAYORDER=
